<?xml version="1.0" standalone="no"?>
<!DOCTYPE svg PUBLIC "-//W3C//DTD SVG 20010904//EN"
 "http://www.w3.org/TR/2001/REC-SVG-20010904/DTD/svg10.dtd">
<svg version="1.0" xmlns="http://www.w3.org/2000/svg"
 width="906.000000pt" height="980.000000pt" viewBox="0 0 906.000000 980.000000"
 preserveAspectRatio="xMidYMid meet">
<metadata>
Created by potrace 1.16, written by Peter Selinger 2001-2019
</metadata>
<g transform="translate(0.000000,980.000000) scale(0.100000,-0.100000)"
fill="#000000" stroke="none">
<path d="M4110 9793 c-235 -11 -566 -53 -795 -99 -273 -55 -476 -116 -807
-239 -212 -79 -273 -108 -263 -126 5 -7 95 -8 278 -3 267 6 276 6 502 -25 280
-38 381 -62 645 -150 113 -38 241 -78 285 -90 130 -36 283 -98 384 -155 53
-30 128 -63 168 -75 56 -17 77 -28 94 -52 27 -38 90 -68 142 -69 50 0 77 -28
77 -80 0 -23 7 -55 16 -73 9 -17 19 -58 21 -92 5 -56 -3 -84 -105 -395 -149
-452 -193 -681 -176 -904 4 -61 7 -159 5 -218 -2 -89 2 -123 25 -215 22 -86
28 -131 28 -223 1 -180 -6 -194 -183 -371 -216 -215 -453 -404 -729 -578 -128
-82 -775 -427 -902 -482 -47 -20 -476 -197 -955 -394 -478 -196 -928 -382
-1000 -412 -172 -73 -417 -194 -485 -241 -116 -79 -52 -95 147 -38 148 43 288
96 723 274 314 128 380 151 728 253 261 76 386 109 393 102 7 -7 -54 -58 -193
-158 -112 -82 -259 -191 -328 -244 -69 -53 -156 -114 -195 -137 -38 -22 -358
-185 -710 -361 -585 -294 -650 -329 -755 -408 -252 -190 -242 -223 35 -112 72
28 962 467 1980 975 l1849 923 141 34 c77 18 254 59 392 90 330 73 334 72 376
-75 9 -30 36 -89 60 -130 24 -41 50 -93 57 -115 14 -43 143 -280 193 -355 58
-87 158 -196 304 -336 162 -154 289 -295 378 -419 70 -98 86 -128 131 -252 19
-54 41 -108 49 -120 21 -32 19 -41 -20 -84 -52 -58 -77 -115 -83 -189 -4 -54
-13 -82 -57 -165 -29 -55 -61 -127 -70 -160 -9 -33 -41 -121 -71 -196 -29 -75
-63 -174 -74 -221 -24 -102 -273 -846 -399 -1195 -69 -189 -117 -302 -204
-475 -63 -124 -134 -251 -158 -281 -51 -63 -219 -302 -267 -379 -18 -29 -31
-57 -29 -63 2 -5 18 -11 36 -13 63 -6 455 209 652 359 365 275 649 546 953
909 190 227 287 360 642 880 65 96 157 222 203 279 143 177 397 582 472 753
22 51 43 119 49 157 5 37 27 137 49 222 41 162 93 505 94 619 1 134 -65 201
-517 525 -393 281 -532 463 -551 721 -8 101 25 416 48 461 19 37 109 94 312
198 171 88 335 155 565 230 96 32 255 89 354 127 98 38 208 76 245 84 111 24
279 28 476 10 203 -18 265 -20 265 -7 0 9 -202 72 -455 142 -225 62 -282 96
-363 212 -119 172 -177 204 -452 246 -293 45 -374 52 -625 49 -250 -2 -307 6
-539 77 -112 34 -145 66 -274 259 -156 234 -200 356 -188 517 12 145 48 245
218 603 208 435 244 546 205 622 -45 87 -197 227 -327 302 -47 27 -117 68
-156 91 -79 47 -119 55 -409 91 -351 42 -1200 71 -1575 53z"/>
</g>
</svg>
